<svg id="Layer_1" data-name="Layer 1" xmlns="http://www.w3.org/2000/svg" viewBox="0 0 2860 2373.45"><defs><style>.cls-1{fill:#231f20;}.cls-2{fill:#fff;}</style></defs><title>logo</title><circle class="cls-1" cx="1434.94" cy="1494.21" r="879.24"/><circle class="cls-1" cx="516.18" cy="516.18" r="516.18"/><circle class="cls-1" cx="2343.82" cy="540.88" r="516.18"/><path class="cls-2" d="M1421.27,1294.63q25.26-2.52,51.8-2.53,134.52,0,245.72,49t163,132.24q51.81,83.2,51.8,172.42,0,150-165.42,294.83t-445,152.48l-7.59-33,113-6.33q-25.85-396.6-96.42-721.75Q1258.44,1353,1214,1396.7T1169.55,1500q0,17.77,12.08,33.93t24.16,16.15q19.71,0,39.73-15.15t20-39q0-18.06-6.76-31.93T1243,1450.1q-15.46,0-15.45,21.52,0,8.48,9,15.65l-5,7.83q-31,0-31-25.92,0-17.67,15-29.38a54.8,54.8,0,0,1,34.7-11.7q22.29,0,39.82,18.38t17.51,38.64q0,30.42-35.84,56.7t-72,26.28q-36.17,0-62.17-26.58t-26-52.54q0-48.11,60.22-101t153.42-76.28l-17.64-77.82,105-15.81Zm34.28,756.61q175.21-26.55,276.11-131.56t100.89-273.91q0-147.37-102.37-237.53t-252.11-90.14a497.8,497.8,0,0,0-51.82,2.53Q1455.56,1742.55,1455.55,2051.24Z" transform="translate(-70 -244.65)"/></svg>