<?xml version="1.0" standalone="no"?>
<!DOCTYPE svg PUBLIC "-//W3C//DTD SVG 20010904//EN"
 "http://www.w3.org/TR/2001/REC-SVG-20010904/DTD/svg10.dtd">
<svg version="1.0" xmlns="http://www.w3.org/2000/svg"
 width="2860.000000pt" height="2860.000000pt" viewBox="0 0 2860.000000 2860.000000"
 preserveAspectRatio="xMidYMid meet">
<metadata>
Created by potrace 1.14, written by Peter Selinger 2001-2017
</metadata>
<g transform="translate(0.000000,2860.000000) scale(0.100000,-0.100000)"
fill="#000000" stroke="none">
<path d="M4898 26155 c-1 -1 -48 -5 -103 -9 -55 -4 -116 -8 -135 -11 -19 -2
-60 -6 -90 -9 -30 -4 -66 -8 -80 -10 -14 -3 -47 -7 -75 -11 -215 -25 -604
-118 -880 -210 -322 -107 -735 -292 -960 -431 -22 -13 -56 -33 -75 -43 -30
-16 -192 -121 -253 -163 -286 -199 -477 -358 -723 -603 -414 -413 -695 -797
-967 -1326 -207 -405 -388 -930 -463 -1349 -2 -14 -9 -47 -14 -75 -11 -55 -38
-242 -46 -320 -3 -27 -7 -61 -9 -74 -26 -154 -26 -855 0 -1012 2 -13 6 -51 10
-84 3 -33 8 -76 10 -95 10 -67 27 -175 31 -200 2 -14 7 -41 10 -60 3 -19 9
-51 14 -70 5 -19 12 -51 15 -70 6 -38 70 -296 85 -345 38 -125 116 -358 132
-395 11 -25 21 -52 23 -60 7 -30 99 -239 175 -395 77 -158 144 -280 221 -404
21 -34 39 -65 39 -67 0 -15 251 -369 319 -450 14 -16 37 -45 51 -64 14 -18 30
-38 35 -44 6 -6 41 -47 80 -91 104 -120 260 -280 399 -410 86 -81 271 -233
401 -331 120 -90 302 -214 314 -214 6 0 11 -3 11 -7 0 -5 10 -13 23 -19 12 -6
51 -29 87 -51 143 -88 316 -179 500 -263 178 -81 179 -82 295 -125 55 -20 109
-41 120 -45 90 -39 449 -142 608 -175 10 -2 26 -6 35 -9 9 -3 31 -8 47 -10 26
-5 78 -15 150 -29 11 -3 41 -7 66 -11 25 -4 57 -9 70 -11 60 -10 179 -25 234
-30 33 -3 85 -7 115 -10 205 -19 601 -19 825 0 116 10 230 22 275 30 14 2 45
7 70 10 25 3 56 8 70 10 14 3 41 7 60 10 19 3 69 13 110 21 41 9 87 18 102 20
15 3 87 21 160 40 73 19 143 37 156 40 37 8 370 120 452 152 41 17 77 28 79
26 2 -1 -37 -63 -86 -136 -112 -167 -263 -411 -263 -426 0 -7 -4 -12 -10 -12
-5 0 -10 -4 -10 -9 0 -7 -79 -152 -110 -201 -5 -8 -62 -121 -128 -250 -166
-329 -262 -548 -376 -855 -37 -99 -71 -187 -75 -195 -5 -9 -12 -31 -16 -50 -4
-19 -11 -41 -16 -50 -8 -15 -51 -145 -55 -165 -1 -5 -16 -55 -33 -111 -17 -55
-34 -109 -36 -120 -3 -10 -23 -86 -45 -169 -22 -82 -43 -163 -46 -179 -3 -16
-7 -32 -9 -36 -4 -6 -58 -253 -70 -319 -2 -14 -9 -49 -16 -80 -6 -30 -12 -64
-14 -75 -1 -12 -10 -66 -19 -121 -24 -146 -24 -146 -31 -195 -3 -25 -10 -76
-15 -115 -5 -38 -12 -95 -15 -125 -4 -30 -8 -66 -10 -80 -2 -14 -7 -59 -10
-100 -3 -41 -8 -95 -10 -120 -5 -58 -17 -246 -21 -330 -4 -95 -4 -619 0 -730
4 -105 14 -258 21 -336 3 -28 7 -80 10 -115 3 -35 7 -75 10 -89 2 -14 7 -56
10 -95 3 -38 10 -99 15 -135 5 -36 12 -83 15 -105 6 -48 24 -158 31 -200 3
-16 8 -43 10 -60 3 -16 9 -52 14 -80 5 -27 12 -66 15 -85 3 -19 10 -51 15 -70
5 -19 11 -48 14 -65 3 -16 7 -41 10 -55 3 -14 8 -35 10 -48 3 -13 7 -31 10
-40 3 -9 7 -28 10 -42 6 -32 48 -202 75 -300 51 -188 60 -221 90 -315 59 -185
83 -260 92 -280 4 -11 22 -60 40 -110 34 -98 132 -351 154 -401 8 -16 30 -66
48 -110 19 -44 47 -107 62 -140 31 -68 251 -512 265 -534 5 -8 55 -96 111
-195 190 -335 368 -606 618 -938 74 -99 112 -146 254 -322 18 -21 41 -49 52
-61 11 -12 43 -49 70 -81 321 -375 834 -862 1196 -1139 35 -26 66 -51 69 -54
16 -19 334 -246 486 -347 176 -118 463 -294 597 -367 37 -20 84 -46 105 -58
44 -25 422 -214 502 -251 30 -14 93 -42 140 -62 47 -21 99 -43 115 -51 76 -33
219 -89 305 -120 52 -19 104 -39 115 -44 36 -17 405 -137 570 -185 317 -92
752 -190 1020 -230 186 -28 308 -45 350 -50 28 -3 68 -8 90 -10 56 -7 118 -13
205 -20 41 -4 91 -8 110 -10 277 -27 1007 -27 1320 0 25 2 78 7 117 10 63 4
308 32 443 50 25 3 101 15 170 27 69 11 139 22 155 25 29 4 253 50 286 57 9 3
33 7 54 10 20 4 40 8 44 11 4 2 18 6 32 8 18 4 190 44 219 52 3 1 19 5 35 9
347 91 896 273 1130 376 11 5 40 18 65 28 149 65 202 88 260 114 116 54 473
234 558 282 45 25 104 58 130 72 50 28 349 210 445 272 183 118 459 316 642
462 38 30 76 60 85 67 169 131 458 393 679 614 128 127 184 185 325 339 30 33
263 304 296 346 182 226 341 445 500 684 56 85 111 167 121 182 11 15 19 30
19 33 0 4 15 30 34 58 136 210 363 639 504 952 179 396 318 774 433 1175 21
74 43 149 48 165 6 17 30 113 55 215 84 352 157 760 191 1075 4 33 8 76 10 95
2 19 7 71 11 115 3 44 8 96 9 115 27 289 27 1106 0 1355 -2 22 -7 72 -10 110
-8 95 -14 151 -21 205 -3 25 -7 61 -9 80 -2 19 -5 49 -8 65 -3 17 -9 55 -12
85 -4 30 -9 62 -10 70 -3 18 -15 93 -21 135 -2 17 -13 77 -24 135 -11 58 -21
116 -24 130 -25 144 -123 546 -187 765 -47 161 -159 501 -184 560 -7 17 -25
64 -40 105 -29 79 -87 224 -110 275 -7 17 -24 57 -38 90 -112 267 -338 709
-509 993 -44 74 -78 135 -76 136 1 2 37 -8 78 -21 80 -26 355 -99 405 -108 47
-8 75 -14 93 -19 9 -3 69 -14 132 -25 143 -25 188 -31 315 -46 28 -3 64 -7 80
-9 200 -26 862 -26 993 -1 10 1 51 6 92 10 41 4 83 9 94 11 10 2 44 6 75 10
31 3 58 8 61 9 3 2 26 6 50 10 25 3 79 13 120 22 41 8 89 17 105 20 17 3 98
22 182 44 824 210 1550 599 2193 1175 205 183 471 469 605 649 16 22 32 42 36
45 3 3 40 54 83 114 389 542 661 1130 825 1781 16 66 33 135 36 154 3 19 7 37
9 40 2 3 7 28 10 55 4 27 9 52 11 56 2 3 6 26 9 50 4 25 9 56 11 70 8 45 14
84 20 135 8 76 16 138 20 162 26 164 26 809 0 1018 -2 17 -6 57 -10 90 -6 60
-22 177 -30 225 -2 14 -7 41 -10 60 -92 555 -321 1189 -607 1683 -39 67 -75
131 -82 142 -72 128 -329 483 -453 626 -142 165 -279 309 -434 454 -79 75
-294 257 -357 303 -13 9 -49 37 -80 61 -116 88 -378 259 -522 339 -25 13 -49
28 -55 32 -18 14 -349 177 -415 205 -36 15 -78 33 -95 40 -280 126 -812 278
-1155 330 -19 3 -46 7 -60 10 -14 2 -44 7 -67 10 -24 3 -62 7 -85 10 -85 11
-114 14 -193 20 -44 3 -105 8 -135 10 -65 6 -512 6 -585 0 -97 -7 -201 -15
-245 -20 -118 -14 -185 -23 -260 -35 -30 -5 -73 -12 -95 -16 -109 -16 -416
-86 -525 -119 -449 -138 -743 -260 -1098 -458 -723 -402 -1340 -978 -1804
-1682 -136 -208 -318 -542 -401 -735 -8 -19 -26 -62 -40 -95 -99 -234 -195
-527 -258 -795 -29 -122 -75 -351 -84 -419 -2 -18 -7 -50 -9 -70 -14 -98 -25
-203 -30 -271 -3 -41 -8 -110 -12 -152 -12 -159 -5 -601 11 -723 2 -16 7 -61
10 -100 7 -75 13 -123 19 -164 3 -14 7 -46 11 -71 13 -86 16 -106 36 -210 36
-183 99 -428 152 -590 17 -52 32 -99 33 -105 2 -5 12 -35 24 -65 12 -30 25
-66 28 -80 5 -24 5 -24 -19 -8 -40 25 -405 211 -524 265 -60 28 -139 64 -175
80 -195 90 -561 229 -820 312 -138 44 -201 64 -383 116 -61 18 -442 112 -482
119 -16 3 -73 14 -125 25 -93 20 -416 75 -495 85 -58 8 -273 34 -320 40 -78 9
-194 19 -395 32 -234 16 -1100 8 -1199 -11 -9 -1 -56 -6 -106 -10 -49 -4 -103
-8 -120 -11 -16 -2 -55 -6 -85 -9 -82 -9 -132 -15 -160 -20 -14 -2 -47 -7 -75
-10 -27 -3 -77 -10 -110 -16 -33 -6 -71 -12 -85 -14 -56 -8 -219 -37 -333 -61
-67 -14 -131 -27 -142 -29 -48 -8 -472 -117 -595 -154 -152 -45 -400 -127
-505 -166 -38 -15 -81 -30 -95 -35 -45 -14 -383 -152 -465 -190 -44 -20 -100
-45 -125 -56 -127 -54 -565 -281 -772 -402 -49 -28 -88 -50 -88 -48 0 2 18 43
41 92 61 133 64 139 117 274 85 213 216 646 238 790 3 19 8 38 10 41 2 3 6 21
9 40 6 38 22 129 30 174 2 17 7 39 9 50 2 11 7 49 11 85 3 36 8 72 10 80 2 8
7 44 10 80 4 36 8 79 10 95 7 62 18 315 18 435 0 119 -11 416 -18 449 -1 9 -6
51 -9 93 -4 42 -9 87 -11 99 -2 12 -7 47 -11 78 -3 31 -8 58 -9 61 -2 3 -7 33
-10 65 -4 33 -9 62 -10 65 -2 3 -6 26 -10 50 -29 194 -147 613 -248 881 -102
272 -279 631 -430 874 -25 41 -189 288 -198 299 -5 6 -45 58 -88 116 -387 514
-888 964 -1441 1296 -155 93 -153 91 -331 183 -417 214 -911 384 -1354 466
-49 10 -97 18 -105 20 -79 15 -247 37 -385 51 -38 3 -81 8 -95 11 -29 4 -657
13 -662 8z"/>
</g>
</svg>
